<mxfile host="app.diagrams.net" modified="2022-10-04T02:30:38.211Z" agent="5.0 (Windows NT 10.0; Win64; x64) AppleWebKit/537.36 (KHTML, like Gecko) Chrome/105.0.0.0 Safari/537.36" etag="4vlN9rpwnNB-rfUx29KY" version="20.4.0" type="github">
  <diagram id="0M5WVOlVfPFfvBstrE9r" name="Page-1">
    <mxGraphModel dx="868" dy="2150" grid="1" gridSize="10" guides="1" tooltips="1" connect="1" arrows="1" fold="1" page="1" pageScale="1" pageWidth="1100" pageHeight="1700" math="0" shadow="0">
      <root>
        <mxCell id="0" />
        <mxCell id="1" parent="0" />
        <mxCell id="C_KyFSzWLRCFrFPrILeC-1" value="" style="ellipse;whiteSpace=wrap;html=1;" vertex="1" parent="1">
          <mxGeometry x="80" y="30" width="100" height="60" as="geometry" />
        </mxCell>
        <mxCell id="C_KyFSzWLRCFrFPrILeC-2" value="" style="ellipse;whiteSpace=wrap;html=1;" vertex="1" parent="1">
          <mxGeometry x="80" y="240" width="100" height="60" as="geometry" />
        </mxCell>
        <mxCell id="C_KyFSzWLRCFrFPrILeC-3" value="" style="ellipse;whiteSpace=wrap;html=1;" vertex="1" parent="1">
          <mxGeometry x="80" y="100" width="100" height="60" as="geometry" />
        </mxCell>
        <mxCell id="C_KyFSzWLRCFrFPrILeC-4" value="" style="ellipse;whiteSpace=wrap;html=1;" vertex="1" parent="1">
          <mxGeometry x="80" y="170" width="100" height="60" as="geometry" />
        </mxCell>
        <mxCell id="C_KyFSzWLRCFrFPrILeC-5" value="" style="endArrow=none;html=1;rounded=0;exitX=0.99;exitY=0.633;exitDx=0;exitDy=0;exitPerimeter=0;" edge="1" parent="1" source="C_KyFSzWLRCFrFPrILeC-1">
          <mxGeometry width="50" height="50" relative="1" as="geometry">
            <mxPoint x="240" y="120" as="sourcePoint" />
            <mxPoint x="310" y="130" as="targetPoint" />
          </mxGeometry>
        </mxCell>
        <mxCell id="C_KyFSzWLRCFrFPrILeC-6" value="" style="endArrow=none;html=1;rounded=0;exitX=0.99;exitY=0.633;exitDx=0;exitDy=0;exitPerimeter=0;" edge="1" parent="1">
          <mxGeometry width="50" height="50" relative="1" as="geometry">
            <mxPoint x="180" y="130.00000000000003" as="sourcePoint" />
            <mxPoint x="310" y="130" as="targetPoint" />
          </mxGeometry>
        </mxCell>
        <mxCell id="C_KyFSzWLRCFrFPrILeC-7" value="" style="endArrow=none;html=1;rounded=0;exitX=0.99;exitY=0.633;exitDx=0;exitDy=0;exitPerimeter=0;" edge="1" parent="1">
          <mxGeometry width="50" height="50" relative="1" as="geometry">
            <mxPoint x="180" y="200" as="sourcePoint" />
            <mxPoint x="310" y="130" as="targetPoint" />
          </mxGeometry>
        </mxCell>
        <mxCell id="C_KyFSzWLRCFrFPrILeC-8" value="" style="endArrow=none;html=1;rounded=0;exitX=0.99;exitY=0.633;exitDx=0;exitDy=0;exitPerimeter=0;" edge="1" parent="1">
          <mxGeometry width="50" height="50" relative="1" as="geometry">
            <mxPoint x="180" y="270" as="sourcePoint" />
            <mxPoint x="310" y="130" as="targetPoint" />
          </mxGeometry>
        </mxCell>
        <mxCell id="C_KyFSzWLRCFrFPrILeC-9" value="" style="rounded=0;whiteSpace=wrap;html=1;" vertex="1" parent="1">
          <mxGeometry x="310" y="110" width="110" height="40" as="geometry" />
        </mxCell>
        <mxCell id="C_KyFSzWLRCFrFPrILeC-10" value="" style="endArrow=none;html=1;rounded=0;exitX=1;exitY=0.5;exitDx=0;exitDy=0;" edge="1" parent="1" source="C_KyFSzWLRCFrFPrILeC-9">
          <mxGeometry width="50" height="50" relative="1" as="geometry">
            <mxPoint x="420" y="260" as="sourcePoint" />
            <mxPoint x="490" y="130" as="targetPoint" />
          </mxGeometry>
        </mxCell>
        <mxCell id="C_KyFSzWLRCFrFPrILeC-11" value="" style="rhombus;whiteSpace=wrap;html=1;" vertex="1" parent="1">
          <mxGeometry x="480" y="82.5" width="120" height="95" as="geometry" />
        </mxCell>
        <mxCell id="C_KyFSzWLRCFrFPrILeC-12" value="" style="endArrow=none;html=1;rounded=0;" edge="1" parent="1">
          <mxGeometry width="50" height="50" relative="1" as="geometry">
            <mxPoint x="539.5" y="82.5" as="sourcePoint" />
            <mxPoint x="540" y="30" as="targetPoint" />
          </mxGeometry>
        </mxCell>
        <mxCell id="C_KyFSzWLRCFrFPrILeC-13" value="" style="ellipse;whiteSpace=wrap;html=1;" vertex="1" parent="1">
          <mxGeometry x="485" y="-30" width="110" height="60" as="geometry" />
        </mxCell>
        <mxCell id="C_KyFSzWLRCFrFPrILeC-14" value="Text" style="text;html=1;align=center;verticalAlign=middle;resizable=0;points=[];autosize=1;strokeColor=none;fillColor=none;" vertex="1" parent="1">
          <mxGeometry x="630" width="40" height="20" as="geometry" />
        </mxCell>
        <mxCell id="C_KyFSzWLRCFrFPrILeC-15" value="" style="endArrow=none;html=1;rounded=0;" edge="1" parent="1">
          <mxGeometry width="50" height="50" relative="1" as="geometry">
            <mxPoint x="600" y="129.5" as="sourcePoint" />
            <mxPoint x="730" y="129.75" as="targetPoint" />
          </mxGeometry>
        </mxCell>
        <mxCell id="C_KyFSzWLRCFrFPrILeC-16" value="" style="endArrow=none;html=1;rounded=0;" edge="1" parent="1">
          <mxGeometry width="50" height="50" relative="1" as="geometry">
            <mxPoint x="595" y="129.5" as="sourcePoint" />
            <mxPoint x="725" y="129.75" as="targetPoint" />
          </mxGeometry>
        </mxCell>
      </root>
    </mxGraphModel>
  </diagram>
</mxfile>
